<?xml version="1.0" encoding="UTF-8" standalone="no"?>
<svg
   width="24"
   height="24"
   viewBox="2.5 4 19 17.5"
   fill="none"
   version="1.1"
   id="svg6"
   sodipodi:docname="activity-bar-icon.svg"
   xml:space="preserve"
   inkscape:version="1.4 (e7c3feb100, 2024-10-09)"
   xmlns:inkscape="http://www.inkscape.org/namespaces/inkscape"
   xmlns:sodipodi="http://sodipodi.sourceforge.net/DTD/sodipodi-0.dtd"
   xmlns="http://www.w3.org/2000/svg"
   xmlns:svg="http://www.w3.org/2000/svg"><defs
     id="defs6" /><sodipodi:namedview
     id="namedview6"
     pagecolor="#ffffff"
     bordercolor="#000000"
     borderopacity="0.25"
     inkscape:showpageshadow="2"
     inkscape:pageopacity="0.0"
     inkscape:pagecheckerboard="0"
     inkscape:deskcolor="#d1d1d1"
     inkscape:zoom="11.696725"
     inkscape:cx="13.679043"
     inkscape:cy="8.0364378"
     inkscape:window-width="1920"
     inkscape:window-height="1005"
     inkscape:window-x="0"
     inkscape:window-y="0"
     inkscape:window-maximized="1"
     inkscape:current-layer="svg6" /><!-- Head: left side, bottom, right side — top stops before plate --><!-- Plate / visor on top --><!-- Ears (flat shells) --><!-- Eyes (vertical ovals) --><ellipse
     cx="8.9907007"
     cy="11.783859"
     rx="1.1916082"
     ry="1.2763551"
     fill="currentColor"
     id="ellipse5"
     style="stroke-width:1.2;stroke-dasharray:none" /><ellipse
     cx="14.838308"
     cy="11.783859"
     rx="1.1916082"
     ry="1.2763551"
     fill="currentColor"
     id="ellipse6"
     style="stroke-width:1.2;stroke-dasharray:none" /><!-- Smile (flat center, upturned ends) --><path
     d="m 5.8700205,8.3802456 q 0,-1.7018069 2.0148285,-1.7018069 h 0.5037072"
     stroke="currentColor"
     stroke-width="1.11103"
     fill="none"
     stroke-linecap="round"
     id="path1"
     style="stroke-width:1.2;stroke-dasharray:none" /><path
     d="m 15.440456,6.6784387 h 0.503707 q 2.014828,0 2.014828,1.7018069"
     stroke="currentColor"
     stroke-width="1.11103"
     fill="none"
     stroke-linecap="round"
     id="path2"
     style="stroke-width:1.2;stroke-dasharray:none" /><line
     x1="5.8700204"
     y1="8.3802452"
     x2="5.8700204"
     y2="16.88928"
     stroke="currentColor"
     stroke-width="1.11103"
     id="line2"
     style="stroke-width:1.2;stroke-dasharray:none" /><line
     x1="17.958992"
     y1="8.3802452"
     x2="17.958992"
     y2="16.88928"
     stroke="currentColor"
     stroke-width="1.11103"
     id="line3"
     style="stroke-width:1.2;stroke-dasharray:none" /><path
     d="m 5.8700205,16.889281 q 0,1.701806 2.0148285,1.701806 h 8.059314 q 2.014828,0 2.014828,-1.701806"
     stroke="currentColor"
     stroke-width="1.11103"
     fill="none"
     id="path3"
     style="stroke-width:1.2;stroke-dasharray:none" /><path
     id="rect3"
     style="stroke:currentColor;stroke-width:1.2;stroke-dasharray:none"
     d="m 9.995189,5.5998615 h 3.808406 c 1.275996,0 1.094174,0.7626441 1.094174,1.7099642 0,0.9473201 -1.027246,1.709964 -2.303242,1.709964 h -1.360043 c -1.275996,0 -2.303242,-0.7626439 -2.303242,-1.709964 0,-0.9473201 -0.2120487,-1.7099642 1.063947,-1.7099642 z"
     sodipodi:nodetypes="sssssss" /><path
     d="m 6.0377755,9.6751137 q -1.7947572,0 -1.7947572,2.2178363 0,2.217835 1.7947572,2.217835"
     stroke="currentColor"
     stroke-width="1.45702"
     fill="none"
     id="path4"
     style="stroke-width:1.2;stroke-dasharray:none" /><path
     d="m 18.002823,9.6751137 q 1.794758,0 1.794758,2.2178363 0,2.217835 -1.794758,2.217835"
     stroke="currentColor"
     stroke-width="1.45702"
     fill="none"
     id="path5"
     style="stroke-width:1.2;stroke-dasharray:none" /><path
     d="m 9.3959704,14.762022 q 0.8059316,0.680723 1.3096386,0.680723 h 2.417794 q 0.503707,0 1.309639,-0.680723"
     stroke="currentColor"
     stroke-width="1.11103"
     fill="none"
     stroke-linecap="round"
     id="path6"
     style="stroke-width:1.2;stroke-dasharray:none" /></svg>
